<svg xmlns="http://www.w3.org/2000/svg" width="1440" height="900" viewBox="0 0 1440 900" role="img" aria-label="VoiceOps Gateway dashboard preview">
  <defs>
    <linearGradient id="page" x1="0" x2="1" y1="0" y2="1">
      <stop offset="0" stop-color="#eef7f4"/>
      <stop offset="1" stop-color="#dde8dc"/>
    </linearGradient>
    <filter id="shadow" x="-20%" y="-20%" width="140%" height="140%">
      <feDropShadow dx="0" dy="16" stdDeviation="24" flood-color="#0d1712" flood-opacity="0.10"/>
    </filter>
  </defs>
  <rect width="1440" height="900" fill="url(#page)"/>
  <rect width="1440" height="70" fill="#ffffff"/>
  <rect x="28" y="18" width="38" height="38" rx="8" fill="#0d1712"/>
  <text x="47" y="43" text-anchor="middle" font-family="Inter,Segoe UI,Arial,sans-serif" font-size="15" font-weight="800" fill="#f7fff9">VG</text>
  <text x="86" y="43" font-family="Inter,Segoe UI,Arial,sans-serif" font-size="23" font-weight="800" fill="#0d1712">VoiceOps Gateway</text>
  <rect x="1210" y="16" width="88" height="40" rx="7" fill="#0d1712"/>
  <text x="1254" y="41" text-anchor="middle" font-family="Inter,Segoe UI,Arial,sans-serif" font-size="15" font-weight="800" fill="#fff">Console</text>
  <text x="1334" y="41" text-anchor="middle" font-family="Inter,Segoe UI,Arial,sans-serif" font-size="15" font-weight="700" fill="#40566b">Sessions</text>
  <g transform="translate(28 110)" filter="url(#shadow)">
    <rect width="1384" height="140" rx="12" fill="#fff" stroke="#d2dfd6"/>
    <text x="28" y="52" font-family="Inter,Segoe UI,Arial,sans-serif" font-size="14" font-weight="800" letter-spacing="4" fill="#506277">OPERATIONS DASHBOARD</text>
    <text x="28" y="95" font-family="Inter,Segoe UI,Arial,sans-serif" font-size="36" font-weight="800" fill="#0d1712">Realtime Voice Production Monitor</text>
    <text x="28" y="124" font-family="Inter,Segoe UI,Arial,sans-serif" font-size="17" fill="#40566b">Session health, gateway throughput, provider behavior, and latency posture across active voice operations.</text>
  </g>
  <g transform="translate(28 285)" font-family="Inter,Segoe UI,Arial,sans-serif" filter="url(#shadow)">
    <g>
      <rect width="214" height="112" rx="10" fill="#fff" stroke="#d2dfd6"/>
      <text x="24" y="38" font-size="13" font-weight="800" letter-spacing="3" fill="#506277">ACTIVE</text>
      <text x="24" y="78" font-size="34" font-weight="800" fill="#0d1712">3</text>
    </g>
    <g transform="translate(232 0)">
      <rect width="214" height="112" rx="10" fill="#fff" stroke="#d2dfd6"/>
      <text x="24" y="38" font-size="13" font-weight="800" letter-spacing="3" fill="#506277">COMPLETED</text>
      <text x="24" y="78" font-size="34" font-weight="800" fill="#0d1712">128</text>
    </g>
    <g transform="translate(464 0)">
      <rect width="214" height="112" rx="10" fill="#fff" stroke="#d2dfd6"/>
      <text x="24" y="38" font-size="13" font-weight="800" letter-spacing="3" fill="#506277">FAILED</text>
      <text x="24" y="78" font-size="34" font-weight="800" fill="#0d1712">0</text>
    </g>
    <g transform="translate(696 0)">
      <rect width="214" height="112" rx="10" fill="#fff" stroke="#d2dfd6"/>
      <text x="24" y="38" font-size="13" font-weight="800" letter-spacing="3" fill="#506277">INGEST</text>
      <text x="24" y="78" font-size="34" font-weight="800" fill="#0d1712">1ms</text>
    </g>
    <g transform="translate(928 0)">
      <rect width="214" height="112" rx="10" fill="#fff" stroke="#d2dfd6"/>
      <text x="24" y="38" font-size="13" font-weight="800" letter-spacing="3" fill="#506277">PROVIDER</text>
      <text x="24" y="78" font-size="34" font-weight="800" fill="#0d1712">128ms</text>
    </g>
    <g transform="translate(1160 0)">
      <rect width="214" height="112" rx="10" fill="#fff" stroke="#d2dfd6"/>
      <text x="24" y="38" font-size="13" font-weight="800" letter-spacing="3" fill="#506277">BARGE-INS</text>
      <text x="24" y="78" font-size="34" font-weight="800" fill="#0d1712">7</text>
    </g>
  </g>
  <g transform="translate(28 435)" filter="url(#shadow)">
    <rect width="1384" height="315" rx="10" fill="#fff" stroke="#d2dfd6"/>
    <g font-family="Inter,Segoe UI,Arial,sans-serif" font-size="13" font-weight="800" letter-spacing="2.4" fill="#506277">
      <text x="26" y="44">SESSION ID</text>
      <text x="190" y="44">STATUS</text>
      <text x="330" y="44">PROVIDER</text>
      <text x="530" y="44">CREATED</text>
      <text x="720" y="44">DURATION</text>
      <text x="880" y="44">TURNS</text>
      <text x="1020" y="44">LATENCY</text>
      <text x="1210" y="44">ACTION</text>
    </g>
    <line x1="0" y1="70" x2="1384" y2="70" stroke="#d2dfd6"/>
    <g font-family="Inter,Segoe UI,Arial,sans-serif" font-size="17" fill="#0d1712">
      <text x="26" y="116">c45e4b02</text><text x="190" y="116">listening</text><text x="330" y="116" font-weight="700">Mock Realtime</text><text x="530" y="116">06:45 PM</text><text x="720" y="116">42s</text><text x="880" y="116">4 / 3</text><text x="1020" y="116">128ms</text>
      <rect x="1210" y="92" width="74" height="34" rx="7" fill="#0d1712"/><text x="1247" y="115" text-anchor="middle" font-size="14" font-weight="800" fill="#fff">Open</text>
      <line x1="0" y1="150" x2="1384" y2="150" stroke="#e3ebe5"/>
      <text x="26" y="196">f6413c8f</text><text x="190" y="196">ended</text><text x="330" y="196" font-weight="700">OpenAI Realtime</text><text x="530" y="196">06:42 PM</text><text x="720" y="196">1m 12s</text><text x="880" y="196">6 / 4</text><text x="1020" y="196">184ms</text>
      <rect x="1210" y="172" width="74" height="34" rx="7" fill="#0d1712"/><text x="1247" y="195" text-anchor="middle" font-size="14" font-weight="800" fill="#fff">Open</text>
      <line x1="0" y1="230" x2="1384" y2="230" stroke="#e3ebe5"/>
      <text x="26" y="276">91bcd418</text><text x="190" y="276">interrupted</text><text x="330" y="276" font-weight="700">Mock Realtime</text><text x="530" y="276">06:40 PM</text><text x="720" y="276">58s</text><text x="880" y="276">5 / 5</text><text x="1020" y="276">136ms</text>
      <rect x="1210" y="252" width="74" height="34" rx="7" fill="#0d1712"/><text x="1247" y="275" text-anchor="middle" font-size="14" font-weight="800" fill="#fff">Open</text>
    </g>
  </g>
  <g transform="translate(28 782)">
    <rect width="672" height="64" rx="10" fill="#0d1712"/>
    <path d="M30 32 C50 8 66 8 86 32 S126 56 146 32 186 8 206 32 246 56 266 32 306 8 326 32 366 56 386 32 426 8 446 32 486 56 506 32 546 8 566 32 620 48 642 30" fill="none" stroke="#4cc6b0" stroke-width="6" stroke-linecap="round"/>
    <text x="728" y="40" font-family="Inter,Segoe UI,Arial,sans-serif" font-size="18" font-weight="700" fill="#40566b">Realtime audio, transcripts, provider events, barge-ins, and latency telemetry in one control plane.</text>
  </g>
</svg>
