<svg xmlns="http://www.w3.org/2000/svg" width="1280" height="640" viewBox="0 0 1280 640" role="img" aria-label="VoiceOps Gateway GitHub social preview">
  <defs>
    <linearGradient id="bg" x1="0" x2="1" y1="0" y2="1">
      <stop offset="0" stop-color="#07110d"/>
      <stop offset="0.48" stop-color="#15251f"/>
      <stop offset="1" stop-color="#dfe8dd"/>
    </linearGradient>
    <linearGradient id="card" x1="0" x2="1">
      <stop offset="0" stop-color="#ffffff" stop-opacity="0.96"/>
      <stop offset="1" stop-color="#edf6f2" stop-opacity="0.88"/>
    </linearGradient>
    <filter id="shadow" x="-30%" y="-30%" width="160%" height="160%">
      <feDropShadow dx="0" dy="24" stdDeviation="28" flood-color="#07110d" flood-opacity="0.28"/>
    </filter>
  </defs>
  <rect width="1280" height="640" fill="url(#bg)"/>
  <circle cx="1034" cy="80" r="270" fill="#4cc6b0" opacity="0.12"/>
  <circle cx="190" cy="532" r="260" fill="#f1b85b" opacity="0.10"/>
  <g transform="translate(72 74)">
    <rect width="88" height="88" rx="20" fill="#0d1712" filter="url(#shadow)"/>
    <text x="44" y="55" text-anchor="middle" font-family="Inter,Segoe UI,Arial,sans-serif" font-size="30" font-weight="800" fill="#f7fff9">VG</text>
    <text x="0" y="154" font-family="Inter,Segoe UI,Arial,sans-serif" font-size="62" font-weight="800" fill="#f7fff9">VoiceOps Gateway</text>
    <text x="4" y="207" font-family="Inter,Segoe UI,Arial,sans-serif" font-size="26" fill="#cfe8dc">Realtime audio gateway and observability platform for production voice agents</text>
    <g transform="translate(0 270)">
      <rect width="178" height="44" rx="10" fill="#063f32"/>
      <text x="89" y="29" text-anchor="middle" font-family="Inter,Segoe UI,Arial,sans-serif" font-size="17" font-weight="700" fill="#aef2d4">Secure Gateway</text>
      <rect x="198" width="174" height="44" rx="10" fill="#10231b" stroke="#3c6f58"/>
      <text x="285" y="29" text-anchor="middle" font-family="Inter,Segoe UI,Arial,sans-serif" font-size="17" font-weight="700" fill="#dbeee6">Realtime WS</text>
      <rect x="392" width="184" height="44" rx="10" fill="#10231b" stroke="#3c6f58"/>
      <text x="484" y="29" text-anchor="middle" font-family="Inter,Segoe UI,Arial,sans-serif" font-size="17" font-weight="700" fill="#dbeee6">Metrics + Traces</text>
    </g>
  </g>
  <g transform="translate(672 96)" filter="url(#shadow)">
    <rect width="456" height="398" rx="18" fill="url(#card)" stroke="#c9dad1"/>
    <rect x="28" y="30" width="400" height="54" rx="12" fill="#0d1712"/>
    <text x="50" y="64" font-family="Inter,Segoe UI,Arial,sans-serif" font-size="18" font-weight="800" fill="#f7fff9">Production Voice Console</text>
    <g transform="translate(30 116)">
      <rect width="128" height="82" rx="12" fill="#f8fbf8" stroke="#d4e0d8"/>
      <text x="18" y="31" font-family="Inter,Segoe UI,Arial,sans-serif" font-size="13" font-weight="700" fill="#506277">INGEST</text>
      <text x="18" y="64" font-family="Inter,Segoe UI,Arial,sans-serif" font-size="30" font-weight="800" fill="#0f1b15">1ms</text>
      <rect x="148" width="128" height="82" rx="12" fill="#f8fbf8" stroke="#d4e0d8"/>
      <text x="166" y="31" font-family="Inter,Segoe UI,Arial,sans-serif" font-size="13" font-weight="700" fill="#506277">PROVIDER</text>
      <text x="166" y="64" font-family="Inter,Segoe UI,Arial,sans-serif" font-size="30" font-weight="800" fill="#0f1b15">128ms</text>
      <rect x="296" width="102" height="82" rx="12" fill="#f8fbf8" stroke="#d4e0d8"/>
      <text x="315" y="31" font-family="Inter,Segoe UI,Arial,sans-serif" font-size="13" font-weight="700" fill="#506277">STATE</text>
      <text x="315" y="64" font-family="Inter,Segoe UI,Arial,sans-serif" font-size="20" font-weight="800" fill="#047857">live</text>
    </g>
    <g transform="translate(30 236)" fill="none" stroke-linecap="round">
      <path d="M0 44 C18 10 34 10 52 44 S86 88 104 44 138 10 156 44 190 88 208 44 242 10 260 44 294 88 312 44 346 10 364 44 390 60 400 48" stroke="#087f94" stroke-width="8"/>
      <path d="M0 88 H400" stroke="#d5e1da" stroke-width="2"/>
      <circle cx="322" cy="44" r="12" fill="#f0ad4e" stroke="#fff" stroke-width="4"/>
    </g>
    <g transform="translate(30 332)">
      <rect width="400" height="48" rx="10" fill="#edf6f2" stroke="#d4e0d8"/>
      <circle cx="26" cy="24" r="8" fill="#08a169"/>
      <text x="44" y="30" font-family="Inter,Segoe UI,Arial,sans-serif" font-size="16" font-weight="700" fill="#0f1b15">Mock and OpenAI Realtime provider ready</text>
    </g>
  </g>
</svg>
